<svg width="28" height="28" viewBox="0 0 28 28" fill="none" xmlns="http://www.w3.org/2000/svg">
<path d="M24.8308 9.65506L17.8882 8.64608L14.7847 2.35428C14.6999 2.18202 14.5604 2.04256 14.3882 1.9578C13.9561 1.74452 13.4311 1.92225 13.2151 2.35428L10.1116 8.64608L3.16904 9.65506C2.97763 9.68241 2.80263 9.77264 2.66865 9.90936C2.50667 10.0758 2.41741 10.2998 2.42049 10.5321C2.42356 10.7644 2.51872 10.9859 2.68505 11.148L7.7081 16.0453L6.52138 22.9605C6.49355 23.1214 6.51135 23.2868 6.57277 23.4381C6.63418 23.5894 6.73675 23.7204 6.86884 23.8163C7.00093 23.9123 7.15725 23.9693 7.32009 23.9809C7.48293 23.9925 7.64577 23.9582 7.79013 23.882L13.9999 20.6172L20.2097 23.882C20.3792 23.9723 20.5761 24.0023 20.7647 23.9695C21.2405 23.8875 21.5604 23.4363 21.4784 22.9605L20.2917 16.0453L25.3147 11.148C25.4515 11.014 25.5417 10.839 25.569 10.6476C25.6429 10.1691 25.3093 9.72616 24.8308 9.65506V9.65506Z" fill="#FFC43D"/>
</svg>
