<svg width="140" height="28" viewBox="0 0 140 28" fill="none" xmlns="http://www.w3.org/2000/svg">
<path d="M24.8308 9.65506L17.8882 8.64608L14.7847 2.35428C14.6999 2.18202 14.5604 2.04256 14.3882 1.9578C13.9561 1.74452 13.4311 1.92225 13.2151 2.35428L10.1116 8.64608L3.16904 9.65506C2.97763 9.68241 2.80263 9.77264 2.66865 9.90936C2.50667 10.0758 2.41741 10.2998 2.42049 10.5321C2.42356 10.7644 2.51872 10.9859 2.68505 11.148L7.7081 16.0453L6.52138 22.9605C6.49355 23.1214 6.51135 23.2868 6.57277 23.4381C6.63418 23.5894 6.73675 23.7204 6.86884 23.8163C7.00093 23.9123 7.15725 23.9693 7.32009 23.9809C7.48293 23.9925 7.64577 23.9582 7.79013 23.882L13.9999 20.6172L20.2097 23.882C20.3792 23.9723 20.5761 24.0023 20.7647 23.9695C21.2405 23.8875 21.5604 23.4363 21.4784 22.9605L20.2917 16.0453L25.3147 11.148C25.4515 11.014 25.5417 10.839 25.569 10.6476C25.6429 10.1691 25.3093 9.72616 24.8308 9.65506V9.65506ZM18.178 15.3562L19.1651 21.1066L13.9999 18.3941L8.83466 21.1094L9.82177 15.359L5.64365 11.2848L11.4186 10.4453L13.9999 5.21444L16.5811 10.4453L22.3561 11.2848L18.178 15.3562Z" fill="#FFC43D"/>
<path d="M80.8308 9.65506L73.8882 8.64608L70.7847 2.35428C70.6999 2.18202 70.5604 2.04256 70.3882 1.9578C69.9561 1.74452 69.4311 1.92225 69.2151 2.35428L66.1116 8.64608L59.169 9.65506C58.9776 9.68241 58.8026 9.77264 58.6686 9.90936C58.5067 10.0758 58.4174 10.2998 58.4205 10.5321C58.4236 10.7644 58.5187 10.9859 58.6851 11.148L63.7081 16.0453L62.5214 22.9605C62.4936 23.1214 62.5114 23.2868 62.5728 23.4381C62.6342 23.5894 62.7367 23.7204 62.8688 23.8163C63.0009 23.9123 63.1573 23.9693 63.3201 23.9809C63.4829 23.9925 63.6458 23.9582 63.7901 23.882L69.9999 20.6172L76.2097 23.882C76.3792 23.9723 76.5761 24.0023 76.7647 23.9695C77.2405 23.8875 77.5604 23.4363 77.4784 22.9605L76.2917 16.0453L81.3147 11.148C81.4515 11.014 81.5417 10.839 81.569 10.6476C81.6429 10.1691 81.3093 9.72616 80.8308 9.65506V9.65506ZM74.178 15.3562L75.1651 21.1066L69.9999 18.3941L64.8347 21.1094L65.8218 15.359L61.6436 11.2848L67.4186 10.4453L69.9999 5.21444L72.5811 10.4453L78.3561 11.2848L74.178 15.3562Z" fill="#FFC43D"/>
<path d="M52.8308 9.65506L45.8882 8.64608L42.7847 2.35428C42.6999 2.18202 42.5604 2.04256 42.3882 1.9578C41.9561 1.74452 41.4311 1.92225 41.2151 2.35428L38.1116 8.64608L31.169 9.65506C30.9776 9.68241 30.8026 9.77264 30.6686 9.90936C30.5067 10.0758 30.4174 10.2998 30.4205 10.5321C30.4236 10.7644 30.5187 10.9859 30.6851 11.148L35.7081 16.0453L34.5214 22.9605C34.4936 23.1214 34.5114 23.2868 34.5728 23.4381C34.6342 23.5894 34.7367 23.7204 34.8688 23.8163C35.0009 23.9123 35.1573 23.9693 35.3201 23.9809C35.4829 23.9925 35.6458 23.9582 35.7901 23.882L41.9999 20.6172L48.2097 23.882C48.3792 23.9723 48.5761 24.0023 48.7647 23.9695C49.2405 23.8875 49.5604 23.4363 49.4784 22.9605L48.2917 16.0453L53.3147 11.148C53.4515 11.014 53.5417 10.839 53.569 10.6476C53.6429 10.1691 53.3093 9.72616 52.8308 9.65506V9.65506ZM46.178 15.3562L47.1651 21.1066L41.9999 18.3941L36.8347 21.1094L37.8218 15.359L33.6436 11.2848L39.4186 10.4453L41.9999 5.21444L44.5811 10.4453L50.3561 11.2848L46.178 15.3562Z" fill="#FFC43D"/>
<path d="M108.831 9.65506L101.888 8.64608L98.7847 2.35428C98.6999 2.18202 98.5604 2.04256 98.3882 1.9578C97.9561 1.74452 97.4311 1.92225 97.2151 2.35428L94.1116 8.64608L87.169 9.65506C86.9776 9.68241 86.8026 9.77264 86.6686 9.90936C86.5067 10.0758 86.4174 10.2998 86.4205 10.5321C86.4236 10.7644 86.5187 10.9859 86.6851 11.148L91.7081 16.0453L90.5214 22.9605C90.4936 23.1214 90.5114 23.2868 90.5728 23.4381C90.6342 23.5894 90.7367 23.7204 90.8688 23.8163C91.0009 23.9123 91.1573 23.9693 91.3201 23.9809C91.4829 23.9925 91.6458 23.9582 91.7901 23.882L97.9999 20.6172L104.21 23.882C104.379 23.9723 104.576 24.0023 104.765 23.9695C105.241 23.8875 105.56 23.4363 105.478 22.9605L104.292 16.0453L109.315 11.148C109.451 11.014 109.542 10.839 109.569 10.6476C109.643 10.1691 109.309 9.72616 108.831 9.65506V9.65506ZM102.178 15.3562L103.165 21.1066L97.9999 18.3941L92.8347 21.1094L93.8218 15.359L89.6436 11.2848L95.4186 10.4453L97.9999 5.21444L100.581 10.4453L106.356 11.2848L102.178 15.3562Z" fill="#FFC43D"/>
<path d="M136.831 9.65506L129.888 8.64608L126.785 2.35428C126.7 2.18202 126.56 2.04256 126.388 1.9578C125.956 1.74452 125.431 1.92225 125.215 2.35428L122.112 8.64608L115.169 9.65506C114.978 9.68241 114.803 9.77264 114.669 9.90936C114.507 10.0758 114.417 10.2998 114.42 10.5321C114.424 10.7644 114.519 10.9859 114.685 11.148L119.708 16.0453L118.521 22.9605C118.494 23.1214 118.511 23.2868 118.573 23.4381C118.634 23.5894 118.737 23.7204 118.869 23.8163C119.001 23.9123 119.157 23.9693 119.32 23.9809C119.483 23.9925 119.646 23.9582 119.79 23.882L126 20.6172L132.21 23.882C132.379 23.9723 132.576 24.0023 132.765 23.9695C133.241 23.8875 133.56 23.4363 133.478 22.9605L132.292 16.0453L137.315 11.148C137.451 11.014 137.542 10.839 137.569 10.6476C137.643 10.1691 137.309 9.72616 136.831 9.65506V9.65506ZM130.178 15.3562L131.165 21.1066L126 18.3941L120.835 21.1094L121.822 15.359L117.644 11.2848L123.419 10.4453L126 5.21444L128.581 10.4453L134.356 11.2848L130.178 15.3562Z" fill="#FFC43D"/>
</svg>
